<?xml version="1.0" encoding="utf-8"?>
<!-- Generator: Adobe Illustrator 27.1.0, SVG Export Plug-In . SVG Version: 6.00 Build 0)  -->
<svg version="1.1" id="Layer_1" xmlns="http://www.w3.org/2000/svg" xmlns:xlink="http://www.w3.org/1999/xlink" x="0px" y="0px"
	 viewBox="0 0 239.28 79.89" style="enable-background:new 0 0 239.28 79.89;" xml:space="preserve">
<style type="text/css">
	.st0{fill:#1E1E1C;}
	.st1{fill:#FFE00F;}
	.st2{fill:#020203;}
</style>
<g>
	<path class="st0" d="M38.81,20.6c2.84,0,5.12,0.93,6.84,2.8c1.72,1.87,2.58,4.35,2.58,7.46v15.21h-7.43V31.5
		c0-1.25-0.31-2.25-0.92-2.97c-0.61-0.73-1.5-1.09-2.65-1.09c-1.22,0-2.17,0.41-2.85,1.24c-0.68,0.83-1.02,1.97-1.02,3.42v13.98
		h-7.43V31.5c0-1.25-0.31-2.25-0.92-2.97c-0.61-0.73-1.5-1.09-2.65-1.09c-1.22,0-2.17,0.41-2.85,1.24
		c-0.68,0.83-1.02,1.97-1.02,3.42v13.98h-7.43V21.29h7.43v2.28c1.35-1.98,3.57-2.97,6.64-2.97c2.87,0,5.04,1.09,6.49,3.27
		C33.14,21.69,35.54,20.6,38.81,20.6z"/>
	<path class="st0" d="M71.32,21.29h7.43v24.78h-7.43v-2.33c-1.75,2.02-4.21,3.02-7.38,3.02c-3.27,0-6.06-1.26-8.38-3.79
		c-2.31-2.53-3.47-5.62-3.47-9.29c0-3.67,1.16-6.76,3.47-9.29c2.31-2.53,5.1-3.79,8.38-3.79c3.17,0,5.63,1.01,7.38,3.02V21.29z
		 M61.16,38.09c1.09,1.09,2.51,1.64,4.26,1.64c1.75,0,3.17-0.54,4.26-1.64c1.09-1.09,1.64-2.56,1.64-4.41s-0.54-3.32-1.64-4.41
		c-1.09-1.09-2.51-1.63-4.26-1.63c-1.75,0-3.17,0.54-4.26,1.63c-1.09,1.09-1.64,2.56-1.64,4.41S60.07,37,61.16,38.09z"/>
	<path class="st0" d="M102.19,11.38h7.43v34.69h-7.43v-2.33c-1.75,2.02-4.21,3.02-7.38,3.02c-3.27,0-6.06-1.26-8.38-3.79
		c-2.31-2.53-3.47-5.62-3.47-9.29c0-3.67,1.16-6.76,3.47-9.29c2.31-2.53,5.1-3.79,8.38-3.79c3.17,0,5.63,1.01,7.38,3.02V11.38z
		 M92.03,38.09c1.09,1.09,2.51,1.64,4.26,1.64c1.75,0,3.17-0.54,4.26-1.64c1.09-1.09,1.64-2.56,1.64-4.41s-0.54-3.32-1.64-4.41
		c-1.09-1.09-2.51-1.63-4.26-1.63c-1.75,0-3.17,0.54-4.26,1.63c-1.09,1.09-1.64,2.56-1.64,4.41S90.94,37,92.03,38.09z"/>
	<path class="st0" d="M121.72,36.65c0.86,2.31,2.84,3.47,5.95,3.47c2.02,0,3.6-0.63,4.76-1.88l5.95,3.42
		c-2.45,3.4-6.05,5.1-10.8,5.1c-4.16,0-7.49-1.24-9.99-3.72c-2.5-2.48-3.74-5.6-3.74-9.37c0-3.73,1.23-6.85,3.69-9.34
		c2.46-2.49,5.62-3.74,9.49-3.74c3.6,0,6.6,1.25,8.99,3.74c2.39,2.5,3.59,5.61,3.59,9.34c0,1.06-0.1,2.05-0.3,2.97H121.72z
		 M121.57,31.1h10.66c-0.73-2.61-2.48-3.92-5.25-3.92C124.1,27.19,122.3,28.49,121.57,31.1z"/>
	<path class="st1" d="M151.26,25.7c0.46-1.59,1.39-2.8,2.8-3.64c1.4-0.84,2.95-1.26,4.63-1.26v8.42c-1.82-0.3-3.51,0.01-5.08,0.92
		c-1.57,0.91-2.35,2.49-2.35,4.73v11.2h-7.43V21.29h7.43V25.7z"/>
	<path class="st1" d="M168.06,36.65c0.86,2.31,2.84,3.47,5.95,3.47c2.02,0,3.6-0.63,4.76-1.88l5.95,3.42
		c-2.45,3.4-6.05,5.1-10.8,5.1c-4.16,0-7.49-1.24-9.99-3.72c-2.5-2.48-3.74-5.6-3.74-9.37c0-3.73,1.23-6.85,3.69-9.34
		c2.46-2.49,5.62-3.74,9.49-3.74c3.6,0,6.6,1.25,8.99,3.74c2.4,2.5,3.59,5.61,3.59,9.34c0,1.06-0.1,2.05-0.3,2.97H168.06z
		 M167.91,31.1h10.66c-0.73-2.61-2.48-3.92-5.25-3.92C170.43,27.19,168.63,28.49,167.91,31.1z"/>
	<path class="st1" d="M207.9,21.29h7.43v24.78h-7.43v-2.33c-1.75,2.02-4.21,3.02-7.38,3.02c-3.27,0-6.06-1.26-8.38-3.79
		s-3.47-5.62-3.47-9.29c0-3.67,1.16-6.76,3.47-9.29c2.31-2.53,5.1-3.79,8.38-3.79c3.17,0,5.63,1.01,7.38,3.02V21.29z M197.74,38.09
		c1.09,1.09,2.51,1.64,4.26,1.64c1.75,0,3.17-0.54,4.26-1.64c1.09-1.09,1.64-2.56,1.64-4.41s-0.54-3.32-1.64-4.41
		c-1.09-1.09-2.51-1.63-4.26-1.63c-1.75,0-3.17,0.54-4.26,1.63c-1.09,1.09-1.64,2.56-1.64,4.41S196.65,37,197.74,38.09z"/>
	<rect x="220.78" y="9.89" class="st1" width="7.43" height="36.18"/>
	<path class="st2" d="M39.66,61.29h2.96c0.6,0,1.13,0.07,1.58,0.2s0.84,0.32,1.18,0.55c0.33,0.23,0.61,0.49,0.83,0.79
		c0.22,0.3,0.39,0.6,0.52,0.91c0.13,0.31,0.22,0.62,0.28,0.94c0.06,0.31,0.08,0.6,0.08,0.86c0,0.54-0.1,1.07-0.3,1.58
		c-0.2,0.51-0.5,0.96-0.89,1.36c-0.39,0.4-0.88,0.71-1.46,0.95c-0.58,0.24-1.25,0.36-2.01,0.36h-2.77V61.29z M40.82,68.7h1.45
		c0.49,0,0.95-0.07,1.39-0.2s0.82-0.33,1.15-0.59c0.33-0.26,0.59-0.59,0.78-0.99c0.19-0.4,0.29-0.86,0.29-1.39
		c0-0.27-0.04-0.59-0.13-0.95c-0.09-0.36-0.25-0.71-0.5-1.04c-0.24-0.33-0.58-0.61-1.01-0.83c-0.43-0.23-0.99-0.34-1.68-0.34h-1.73
		V68.7z"/>
	<polygon class="st2" points="53.91,61.29 59.39,61.29 59.39,62.37 55.06,62.37 55.06,64.9 59.09,64.9 59.09,65.98 55.06,65.98 
		55.06,68.7 59.61,68.7 59.61,69.78 53.91,69.78 	"/>
	<path class="st2" d="M66.65,68.01c0.21,0.31,0.47,0.54,0.8,0.69c0.32,0.15,0.66,0.22,1,0.22c0.19,0,0.39-0.03,0.59-0.09
		c0.2-0.06,0.38-0.15,0.55-0.27s0.3-0.27,0.4-0.44c0.1-0.18,0.16-0.38,0.16-0.61c0-0.33-0.1-0.58-0.31-0.75
		c-0.21-0.17-0.47-0.32-0.77-0.43s-0.64-0.23-1.01-0.34c-0.36-0.11-0.7-0.26-1.01-0.45s-0.57-0.45-0.77-0.77
		c-0.21-0.32-0.31-0.76-0.31-1.31c0-0.25,0.05-0.51,0.16-0.79s0.28-0.54,0.51-0.77c0.23-0.23,0.53-0.43,0.89-0.58
		c0.36-0.16,0.8-0.23,1.31-0.23c0.46,0,0.91,0.06,1.33,0.19c0.42,0.13,0.8,0.39,1.12,0.78l-0.94,0.85c-0.14-0.22-0.35-0.4-0.61-0.54
		c-0.26-0.14-0.56-0.2-0.9-0.2c-0.32,0-0.59,0.04-0.8,0.13s-0.38,0.19-0.51,0.32c-0.13,0.13-0.22,0.27-0.27,0.43
		c-0.05,0.15-0.08,0.29-0.08,0.42c0,0.36,0.1,0.64,0.31,0.83c0.21,0.19,0.47,0.35,0.77,0.47s0.64,0.23,1.01,0.32
		c0.36,0.1,0.7,0.23,1.01,0.4c0.31,0.17,0.57,0.4,0.77,0.7s0.31,0.69,0.31,1.21c0,0.41-0.08,0.78-0.23,1.1
		c-0.16,0.33-0.37,0.6-0.63,0.83c-0.26,0.22-0.58,0.4-0.94,0.52C69.21,69.94,68.82,70,68.42,70c-0.54,0-1.06-0.1-1.55-0.29
		c-0.49-0.19-0.88-0.49-1.16-0.89L66.65,68.01z"/>
	<rect x="78.23" y="61.29" class="st2" width="1.15" height="8.5"/>
	<path class="st2" d="M93.96,65.03v4.19c-0.21,0.13-0.44,0.24-0.71,0.34c-0.26,0.1-0.54,0.18-0.82,0.25
		c-0.28,0.07-0.57,0.12-0.86,0.15S91,70,90.75,70c-0.72,0-1.36-0.12-1.93-0.36c-0.56-0.24-1.04-0.56-1.43-0.97
		c-0.39-0.41-0.68-0.88-0.89-1.42s-0.31-1.11-0.31-1.71c0-0.63,0.11-1.22,0.33-1.76c0.22-0.54,0.52-1.02,0.91-1.42
		c0.39-0.4,0.85-0.71,1.4-0.94c0.54-0.23,1.14-0.34,1.79-0.34c0.78,0,1.42,0.1,1.92,0.29c0.5,0.2,0.91,0.47,1.25,0.81l-0.82,0.88
		c-0.35-0.34-0.72-0.57-1.12-0.7c-0.39-0.13-0.8-0.2-1.24-0.2c-0.49,0-0.93,0.09-1.32,0.27c-0.39,0.18-0.73,0.42-1.01,0.73
		c-0.28,0.3-0.5,0.66-0.65,1.07c-0.15,0.41-0.23,0.85-0.23,1.31c0,0.48,0.08,0.93,0.25,1.34s0.4,0.77,0.7,1.07s0.64,0.54,1.04,0.71
		c0.4,0.17,0.84,0.26,1.31,0.26c0.41,0,0.79-0.04,1.16-0.11c0.36-0.08,0.67-0.19,0.93-0.33v-2.36h-1.88v-1.08H93.96z"/>
	<polygon class="st2" points="101.22,61.29 102.74,61.29 107.42,68.27 107.44,68.27 107.44,61.29 108.59,61.29 108.59,69.78 
		107.13,69.78 102.4,62.8 102.38,62.8 102.38,69.78 101.22,69.78 	"/>
	<path class="st2" d="M131.88,69.78h-1.55l-1.04-1.13c-0.36,0.43-0.74,0.76-1.15,1c-0.4,0.23-0.89,0.35-1.46,0.35
		c-0.48,0-0.9-0.07-1.25-0.21s-0.64-0.33-0.87-0.56c-0.23-0.23-0.4-0.49-0.5-0.79s-0.16-0.59-0.16-0.91c0-0.3,0.05-0.57,0.16-0.81
		c0.1-0.24,0.24-0.47,0.42-0.67c0.18-0.2,0.38-0.38,0.62-0.54s0.48-0.3,0.74-0.42c-0.27-0.29-0.51-0.58-0.7-0.89
		c-0.2-0.3-0.29-0.66-0.29-1.08c0-0.32,0.06-0.6,0.19-0.85s0.29-0.46,0.5-0.62s0.45-0.3,0.72-0.38s0.56-0.13,0.86-0.13
		c0.3,0,0.58,0.04,0.85,0.12s0.5,0.2,0.7,0.36s0.36,0.36,0.47,0.6c0.12,0.24,0.17,0.52,0.17,0.84c0,0.26-0.05,0.51-0.16,0.73
		c-0.1,0.22-0.24,0.42-0.41,0.6c-0.17,0.18-0.36,0.34-0.56,0.48s-0.42,0.27-0.64,0.38l1.68,1.75l1.07-1.74h1.31l-1.64,2.54
		L131.88,69.78z M126.55,65.77c-0.17,0.1-0.34,0.2-0.51,0.31c-0.17,0.11-0.33,0.24-0.46,0.37c-0.14,0.14-0.25,0.29-0.33,0.46
		c-0.08,0.17-0.13,0.37-0.13,0.58c0,0.21,0.04,0.4,0.13,0.58c0.09,0.18,0.21,0.34,0.36,0.47c0.15,0.14,0.32,0.24,0.51,0.32
		s0.39,0.11,0.59,0.11s0.4-0.03,0.58-0.1c0.18-0.06,0.35-0.15,0.5-0.25c0.16-0.1,0.3-0.21,0.43-0.34c0.13-0.13,0.25-0.26,0.37-0.4
		L126.55,65.77z M128.15,63.06c0-0.28-0.1-0.5-0.29-0.67s-0.44-0.25-0.74-0.25c-0.3,0-0.57,0.09-0.79,0.26
		c-0.22,0.17-0.34,0.42-0.34,0.74c0,0.14,0.03,0.28,0.08,0.41c0.05,0.13,0.12,0.25,0.2,0.37c0.08,0.12,0.17,0.23,0.27,0.34
		c0.1,0.1,0.19,0.2,0.29,0.3c0.14-0.08,0.29-0.17,0.45-0.26c0.16-0.1,0.3-0.2,0.43-0.32c0.13-0.12,0.23-0.25,0.32-0.4
		S128.15,63.25,128.15,63.06z"/>
	<path class="st2" d="M146.75,61.29h2.99c0.54,0,0.99,0.07,1.34,0.22c0.35,0.15,0.63,0.34,0.83,0.56c0.2,0.23,0.35,0.48,0.43,0.77
		c0.08,0.28,0.12,0.56,0.12,0.82s-0.04,0.54-0.12,0.82s-0.22,0.54-0.43,0.77c-0.2,0.23-0.48,0.42-0.83,0.56
		c-0.35,0.15-0.8,0.22-1.34,0.22h-1.84v3.74h-1.15V61.29z M147.9,65.03h1.51c0.22,0,0.45-0.02,0.67-0.05s0.42-0.1,0.59-0.2
		s0.31-0.23,0.41-0.41c0.1-0.18,0.16-0.41,0.16-0.7s-0.05-0.52-0.16-0.7c-0.1-0.18-0.24-0.32-0.41-0.41
		c-0.17-0.1-0.37-0.16-0.59-0.2c-0.22-0.04-0.44-0.05-0.67-0.05h-1.51V65.03z"/>
	<path class="st2" d="M159.03,61.29h2.99c0.54,0,0.99,0.07,1.34,0.22c0.35,0.15,0.63,0.34,0.83,0.56c0.2,0.23,0.35,0.48,0.43,0.77
		c0.08,0.28,0.12,0.56,0.12,0.82c0,0.27-0.05,0.53-0.14,0.79s-0.23,0.48-0.41,0.68c-0.18,0.2-0.4,0.38-0.66,0.52
		s-0.55,0.23-0.87,0.26l2.41,3.88h-1.44l-2.16-3.74h-1.28v3.74h-1.15V61.29z M160.18,65.03h1.51c0.22,0,0.45-0.02,0.67-0.05
		s0.42-0.1,0.59-0.2s0.31-0.23,0.41-0.41c0.1-0.18,0.16-0.41,0.16-0.7s-0.05-0.52-0.16-0.7c-0.1-0.18-0.24-0.32-0.41-0.41
		c-0.17-0.1-0.37-0.16-0.59-0.2c-0.22-0.04-0.44-0.05-0.67-0.05h-1.51V65.03z"/>
	<rect x="171.52" y="61.29" class="st2" width="1.15" height="8.5"/>
	<polygon class="st2" points="180.01,61.29 181.53,61.29 186.21,68.27 186.23,68.27 186.23,61.29 187.38,61.29 187.38,69.78 
		185.92,69.78 181.19,62.8 181.17,62.8 181.17,69.78 180.01,69.78 	"/>
	<polygon class="st2" points="196.5,62.37 193.77,62.37 193.77,61.29 200.39,61.29 200.39,62.37 197.65,62.37 197.65,69.78 
		196.5,69.78 	"/>
</g>
</svg>
